
<svg width="1232px" height="882px" viewBox="0 0 1232 882" version="1.1" xmlns="http://www.w3.org/2000/svg" xmlns:xlink="http://www.w3.org/1999/xlink">
    <!-- Generator: Sketch 50.2 (55047) - http://www.bohemiancoding.com/sketch -->
    <desc>Created with Sketch.</desc>
    <defs>
        <radialGradient cx="-19.7226345%" cy="-19.5779037%" fx="-19.7226345%" fy="-19.5779037%" r="208.354997%" gradientTransform="translate(-0.197226,-0.195779),scale(0.701671,1.000000),rotate(35.023632),translate(0.197226,0.195779)" id="radialGradient-1">
            <stop stop-color="#B6FBFF" offset="0%"></stop>
            <stop stop-color="#9EBAE2" offset="100%"></stop>
        </radialGradient>
        <linearGradient x1="50%" y1="0%" x2="50%" y2="100%" id="linearGradient-2">
            <stop stop-color="#CDDCFF" stop-opacity="0.263247283" offset="0%"></stop>
            <stop stop-color="#9FB7FF" stop-opacity="0.364809783" offset="100%"></stop>
        </linearGradient>
        <linearGradient x1="2.63728324%" y1="46.7067689%" x2="100%" y2="46.7067689%" id="linearGradient-3">
            <stop stop-color="#FFFFFF" stop-opacity="0" offset="0%"></stop>
            <stop stop-color="#FFFFFF" stop-opacity="0.273918705" offset="49.0358562%"></stop>
            <stop stop-color="#FFFFFF" stop-opacity="0" offset="100%"></stop>
        </linearGradient>
        <linearGradient x1="60.6286585%" y1="50%" x2="60.6286585%" y2="100%" id="linearGradient-4">
            <stop stop-color="#FAFAFA" stop-opacity="0" offset="0%"></stop>
            <stop stop-color="#D2DDFF" stop-opacity="0.137737772" offset="100%"></stop>
        </linearGradient>
        <linearGradient x1="50%" y1="0%" x2="50%" y2="100%" id="linearGradient-5">
            <stop stop-color="#FAFAFA" stop-opacity="0.194406703" offset="0%"></stop>
            <stop stop-color="#9FB7FF" stop-opacity="0.364809783" offset="100%"></stop>
        </linearGradient>
        <linearGradient x1="50%" y1="0%" x2="50%" y2="200.960503%" id="linearGradient-6">
            <stop stop-color="#FAFAFA" stop-opacity="0.177281476" offset="0%"></stop>
            <stop stop-color="#9FB7FF" stop-opacity="0.137737772" offset="100%"></stop>
        </linearGradient>
        <linearGradient x1="50%" y1="0%" x2="50%" y2="100%" id="linearGradient-7">
            <stop stop-color="#FAFAFA" stop-opacity="0.074048913" offset="0%"></stop>
            <stop stop-color="#B9CAFD" stop-opacity="0.137737772" offset="100%"></stop>
        </linearGradient>
    </defs>
    <g id="Page-1" stroke="none" stroke-width="1" fill="none" fill-rule="evenodd">
        <g id="Main-Background">
            <rect id="Rectangle" fill="url(#radialGradient-1)" x="-12" y="0" width="1257" height="882"></rect>
            <path d="M0,587.791514 C97.4687923,580.597171 196.285653,577 296.450581,577 C396.61551,577 503.131983,580.597171 616,587.791514 C731.332427,593.97006 837.864322,597.059333 935.595685,597.059333 C1033.32705,597.059333 1132.12849,593.97006 1232,587.791514 L1232,882 L0,882 L0,587.791514 Z" id="Rectangle-4" fill-opacity="0.363564312" fill="#E7C5FB"></path>
            <path d="M-18,598.470652 C87.5833333,610.218187 193.166667,616.091955 298.75,616.091955 C404.333333,616.091955 509.916667,610.218187 615.5,598.470652 C721.083333,585.490217 826.666667,579 932.25,579 C1037.83333,579 1143.41667,585.490217 1249,598.470652 L1249,700.298873 C1130.14552,691.858807 1019.90788,687.638773 918.287071,687.638773 C816.666262,687.638773 715.737238,691.858807 615.5,700.298873 C509.916667,706.099624 404.333333,709 298.75,709 C193.166667,709 87.5833333,706.099624 -18,700.298873 L-18,598.470652 Z" id="Rectangle-5-Copy" fill="url(#linearGradient-2)" transform="translate(615.500000, 644.000000) scale(1, -1) translate(-615.500000, -644.000000) "></path>
            <path d="M466,588 C667.372999,595.83724 838.70186,599.755859 979.986582,599.755859 C1121.2713,599.755859 1296.60911,595.83724 1506,588 L1506,882 L466,882 L466,588 Z" id="Rectangle-6" fill-opacity="0.1" fill="url(#linearGradient-3)"></path>
            <path d="M-1.77635684e-15,0 L1232,0 L1311.04672,474.229182 C1300.55547,553.856993 1274.20656,595.113932 1232,598 C1204.9709,599.848239 1147.96904,596.579229 1059.13281,598 C1025.87709,598.531864 965.776832,598.531864 878.832031,598 C799.904152,598 723.359049,598 649.196722,598 C575.034396,598 500.893412,594.536133 426.77377,587.608399 C343.143876,583.349723 263.4571,581.220385 187.713441,581.220385 C111.969782,581.220385 45.0653018,583.349723 -13,587.608399 L-1.77635684e-15,0 Z" id="Rectangle-7-Copy-2" fill="url(#linearGradient-4)"></path>
            <path d="M-11,364.724501 C93.5,390.502149 198,403.390972 302.5,403.390972 C407,403.390972 511.5,390.502149 616,364.724501 C720.5,336.2415 825,322 929.5,322 C1034,322 1138.5,336.2415 1243,364.724501 L1243,588.166429 C1138.5,596.055476 1034,600 929.5,600 C825,600 720.5,596.055476 616,588.166429 C511.5,582.218048 407,579.243858 302.5,579.243858 C198,579.243858 93.5,582.218048 -11,588.166429 L-11,364.724501 Z" id="Rectangle-5" fill="url(#linearGradient-5)"></path>
            <path d="M-13,454.752367 C58.1082168,438.250789 125.012697,430 187.713441,430 C250.414185,430 311.259704,438.250789 370.25,454.752367 C443.112958,470.069102 510.696808,477.72747 573.00155,477.72747 C635.306291,477.72747 695.472441,470.069102 753.5,454.752367 C817.375,438.250789 881.25,430 945.125,430 C1009,430 1072.875,438.250789 1136.75,454.752367 C1218.27818,470.069102 1289.4407,477.72747 1350.23756,477.72747 C1411.03443,477.72747 1467.6219,470.069102 1520,454.752367 L1520,587.608399 C1370.20656,587.650065 1274.20656,589.113932 1232,592 C1204.9709,593.848239 1147.96904,596.579229 1059.13281,598 C1009.24923,598.797796 988.006685,599.655831 878.832031,598 C769.657378,596.344169 774.775582,592 663.532093,592 C552.288603,592 541.200299,582.608399 426.77377,582.608399 C312.34724,582.608399 301.328929,581.220385 187.713441,581.220385 C111.969782,581.220385 45.0653018,583.349723 -13,587.608399 L-13,454.752367 Z" id="Rectangle-7" fill="url(#linearGradient-6)"></path>
            <path d="M1,588.37694 C70.9485916,582.125647 136.762001,579 198.440228,579 C260.118454,579 319.971712,582.125647 378,588.37694 C449.674717,594.17938 516.156417,597.0806 577.445099,597.0806 C638.733781,597.0806 697.918748,594.17938 755,588.37694 C817.833333,582.125647 880.666667,579 943.5,579 C1006.33333,579 1069.16667,582.125647 1132,588.37694 C1212.19863,594.17938 1282.20064,597.0806 1342.00603,597.0806 C1401.81142,597.0806 1457.47608,594.17938 1509,588.37694 L1509,638.706797 L1232,633.515625 C1144.76013,629.830729 1066.12081,627.988281 996.082031,627.988281 C926.043255,627.988281 758.687226,631.56112 494.013942,638.706797 C367.341725,645.568932 268.817154,649 198.440228,649 C128.063302,649 62.2498925,645.568932 1,638.706797 L1,588.37694 Z" id="Rectangle-7-Copy" fill="url(#linearGradient-7)" transform="translate(755.000000, 614.000000) scale(1, -1) translate(-755.000000, -614.000000) "></path>
            <path d="M-10,147.550823 C98.9559153,161.183608 207.911831,168 316.867746,168 C480.301619,168 532.262299,163.101646 643.735492,147.550823 C755.208685,132 812.734278,132 975.477735,132 C1138.22119,132 1415.77575,163.101646 1297.47098,147.550823" id="Line-5" stroke-opacity="0.278617527" stroke="#FFFFFF" stroke-width="0.5" stroke-linecap="square" transform="translate(658.000000, 150.000000) scale(1, -1) translate(-658.000000, -150.000000) "></path>
            <path d="M-10,151.550823 C98.9559153,165.183608 207.911831,172 316.867746,172 C480.301619,172 532.262299,167.101646 643.735492,151.550823 C755.208685,136 812.734278,136 975.477735,136 C1138.22119,136 1415.77575,167.101646 1297.47098,151.550823" id="Line-5-Copy" stroke-opacity="0.278617527" stroke="#FFFFFF" stroke-width="0.5" stroke-linecap="square" transform="translate(658.000000, 154.000000) scale(1, -1) translate(-658.000000, -154.000000) "></path>
            <path d="M-10,156.464679 C98.9935028,170.154893 207.987006,177 316.980508,177 C480.470762,177 530.397006,168.616332 641.908655,153 C753.420303,137.383668 806.759129,129 969.558728,129 C1132.35833,129 1416.26761,172.081011 1297.92203,156.464679" id="Line-5-Copy-2" stroke-opacity="0.278617527" stroke="#FFFFFF" stroke-width="0.5" stroke-linecap="square" transform="translate(658.000000, 153.000000) scale(1, -1) translate(-658.000000, -153.000000) "></path>
            <path d="M-10,129.550823 L1297.47098,129.550823 C1415.77575,145.101646 1138.22119,114 975.477735,114 C812.734278,114 755.208685,114 643.735492,129.550823 C532.262299,145.101646 480.301619,150 316.867746,150 C207.911831,150 98.9559153,143.183608 -10,129.550823 Z" id="Line-5-Copy-3" stroke-opacity="0.278617527" stroke="#FFFFFF" stroke-width="0.5" stroke-linecap="square" transform="translate(658.000000, 132.000000) scale(1, -1) translate(-658.000000, -132.000000) "></path>
            <path d="M-10,124.759768 L1297.47098,124.759768 C1415.77575,140.519536 1138.22119,109 975.477735,109 C812.734278,109 757.74281,116.240232 646.269617,132 C534.796424,147.759768 478.608755,155 315.174882,155 C206.218967,155 97.8273396,144.919923 -10,124.759768 Z" id="Line-5-Copy-4" stroke-opacity="0.278617527" stroke="#FFFFFF" stroke-width="0.5" stroke-linecap="square" transform="translate(658.000000, 132.000000) scale(1, -1) translate(-658.000000, -132.000000) "></path>
        </g>
    </g>
</svg>